<svg xmlns="http://www.w3.org/2000/svg" width="687.844" height="24" viewBox="0 0 687.844 24">
  <g id="组_794" data-name="组 794" transform="translate(-343.156 -67)">
    <path id="路径_180" data-name="路径 180" d="M15.834-4.264l.442-3.276H7.488L7.046-4.264,4.836-2.99H1.872L2.808-9.7H21.58L20.644-2.99H17.68Zm7.54-11.544-6.526,1.534-.182,1.456h4.576l2.028-1.768L22.7-10.608H12.064l.364-2.6-2.782.65.364-2.6,2.782-.65.234-1.664-.858-.988h5.278l-.234,1.586,6.526-1.534ZM11.076-2,7.1.208H.156L8.5-4.6l.286-2.184h5.98L14.4-4.134,21.4.208H14.482ZM9.568-17h.026l-.936,6.656H3.926L4.5-14.456l-2.028.442L2.912-17,9.8-18.486Zm30.264.988H48.2L46.176-1.482A1.269,1.269,0,0,1,45.5-.468a2.933,2.933,0,0,1-1.274.26H41.054L42.172-1.2l1.742-12.35h-.338L39.832-.208H36.868l3.744-13.338h-.728L36.114-.208H33.15L36.5-12.064h-1.69l1.924-5.8-.52-.624h4.446ZM29.718-14.534h.988l.572-3.952h3.458l-.572,3.952h.494l-.338,2.47h-.494l-.65,4.55,1.014-.1-.338,2.47-1.04.13L32.084.234H28.132L28.808-4.6l-4,.442.364-2.47,4-.442.7-4.992H29.12l-.572,2.47H25.584L27.2-16.328,26.624-17h3.692Zm41.964,9.2-2.314.78L70.876.208H67.054L64.3-8.606h-.39l-.858,5.98,2.392-.312L65.1-.468l-6.292.7L61.36-17.992H72.878l-1.3,9.386H68.12l.52,1.69L72.072-8.06ZM53.222-9.282l-.936,6.734.806-.1L54.21-10.66H51.22l1.014-7.332H60.58L59.566-10.66H57.928l-.26,1.9H59.02L58.682-6.24H57.3l-.416,3.094,1.638-.208L58.188-.936,49.218.182l.338-2.366L50-2.236l.988-7.046Zm11.44-4.966h4.264l.208-1.4H64.87Zm3.8,3.354.182-1.4H64.376l-.182,1.4ZM55.3-15.782l-.416,2.99h1.586l.416-2.99ZM77.4-9.646,76.388-2.47l.7-.078,1.144-8.112H75.556l1.04-7.332h7.9L83.46-10.66H81.874l-.286,2.028h1.69L82.966-6.37h-1.69l-.468,3.38,1.924-.234L82.394-.806,73.58.182l.338-2.366.234-.026,1.066-7.436ZM85.644.208l1.768-1.924.754-5.408H83.9l.312-2.236h12.4L96.3-7.124H92.066L91.26-1.352a1.7,1.7,0,0,1-.676,1.118,2.108,2.108,0,0,1-1.326.442Zm8.45-14.716h-6.24l-.208,1.43H84.422l.52-3.692H89.31l.1-.7-.754-.988h4.81l-.26,1.69h4.42l-.52,3.692H93.886Zm1.976,1.95-.312,2.184H85.41l.312-2.184Zm-8.684,6.37L85.8-.286H82.862l1.612-5.9Zm7.982,0L95.29-.26H92.378l.078-5.928ZM79.43-16.042l-.468,3.432h1.664l.468-3.432Zm35.1-.234L116.506-1.56h-4.472l-.52-4h-6.24l-1.742,4H99.294l5.746-13.988-.754-.728Zm-5.746,2.5-2.5,5.72h4.992l-.754-5.72Zm27.846-2.5-.988,7.982a2.383,2.383,0,0,1-.819,1.248,1.906,1.906,0,0,1-1.183.494H124.9L124.15-1.56h-4.732l1.742-13.988-.754-.728Zm-10.712,2.5-.52,4.732h5.252l.754-4.732Zm20.67-2.5L144.326-1.56h-4.732l1.742-13.728-.754-.988Zm5.122,7.644.624-4.42h-1.976l.364-2.47H152.7l.312-2.21-.65-.754h5.2l-.416,2.964h1.976l-.364,2.47h-1.95l-.494,3.406,2.028-.442-.364,2.73-2.054.442-.754,5.434a2.008,2.008,0,0,1-.7,1.235,1.964,1.964,0,0,1-1.3.481h-4.394l2.028-2.34.546-3.822-2.054.442.39-2.7Zm18.59-.416-.1.6h1.274l-.338,2.444h-1.274L169.6-4.16,166.92-2.5l3.822,2.73h-5.2l-1.4-.962-1.56.962h-5.2l4.264-2.7L159.25-4.134l.26-1.872h-1.222l.338-2.444h1.248l.078-.6H163.9l-.1.6h2.444l.1-.6Zm-5.252-3.016h1.014l1.014-1.976h3.952l-1.014,1.976h1.69l-.338,2.47h-12.35l.338-2.47H161.1l-.442-1.976h3.952Zm3.38-6.422L168.22-17h3.952l-.364,2.47H159.952l.364-2.47h3.952l.052-.494-.832-.988ZM165.776-5.07l.13-.936h-2.444l-.13.936,1.144.832ZM196.066-17.5,193.726-.7h-19.76l2.21-15.808-.858-.988ZM189.124-3.172l1.664-11.856h-9.88L179.244-3.172Z" transform="translate(343 88)" fill="#fff"/>
    <path id="路径_179" data-name="路径 179" d="M3.92-1.932H2.9V-5.446H3.92ZM.644-9.73h1.5A11.962,11.962,0,0,1,.336-5.012,9.312,9.312,0,0,1,.91-3.024c.2-.238.392-.5.574-.77V.546H2.9V-.476h2.45V-6.9H2.926A21.571,21.571,0,0,0,3.682-9.73H5.656v-1.512H.644ZM10.836-3.066H5.88v1.484h4.956Zm.9-2.758c.21-1.75.42-3.71.518-5.278l-1.19-.1-.266.056H6.132v1.5h4.41c-.1,1.148-.252,2.562-.406,3.822H8.05c.126-1.022.238-2.184.322-3.192L6.818-9.1c-.1,1.5-.308,3.458-.5,4.69h5.264c-.21,2.548-.49,3.64-.784,3.948a.584.584,0,0,1-.5.182c-.266,0-.812,0-1.372-.056a3.754,3.754,0,0,1,.42,1.484,12.247,12.247,0,0,0,1.68-.028A1.628,1.628,0,0,0,12.152.546c.476-.518.784-2.03,1.064-5.7.028-.21.042-.672.042-.672ZM21.9-9.87a12.742,12.742,0,0,0-3.276-1.582l-.91,1.176A12.886,12.886,0,0,1,20.944-8.54ZM20.734-7.084a13.156,13.156,0,0,0-3.318-1.708l-.98,1.162A13.977,13.977,0,0,1,19.684-5.8Zm7.924,3.01V-5.628H23.884a36.181,36.181,0,0,0,.35-6.174H22.5a32.516,32.516,0,0,1-.336,6.174h-6.1v1.554h5.614C20.846-2.282,19.208-.994,15.9-.21a5.281,5.281,0,0,1,.952,1.4c3.976-1.022,5.81-2.814,6.636-5.264Zm-5.768,2.2a21.264,21.264,0,0,1,4.774,2.912L28.756-.252a22.921,22.921,0,0,0-5-2.814ZM43.778-9.17a15.739,15.739,0,0,0-1.568-2.38l-1.246.686A17.411,17.411,0,0,1,42.42-8.372ZM44-6.328V-7.98h-3.7v-3.85H38.654v3.85H35.812v1.652h2.744A9.485,9.485,0,0,1,35.462-.042v-11.83H33.81v3.836a21.26,21.26,0,0,0-1.33-2.044l-1.3.756A16.443,16.443,0,0,1,32.69-6.608l1.12-.686v1.988c-1.008.868-2.044,1.68-2.716,2.17l.84,1.428c.588-.476,1.232-1.05,1.876-1.624V1.19h1.652V.28A7.184,7.184,0,0,1,36.6,1.2a10.129,10.129,0,0,0,3.178-5.04A10.331,10.331,0,0,0,43.19,1.176a5.836,5.836,0,0,1,1.2-1.4c-1.932-1.19-3.192-3.486-3.864-6.1ZM48.076.742a14.8,14.8,0,0,0,1.246-3.78l-1.484-.5A11.343,11.343,0,0,1,46.564-.014ZM52.29-.546c-.812,0-.952-.056-.952-.5V-3.43H49.686v2.394c0,1.512.5,1.974,2.436,1.974h2.7c1.568,0,2.058-.5,2.254-2.506a4.676,4.676,0,0,1-1.5-.6C55.5-.756,55.384-.546,54.7-.546ZM51.24-5.488a12.151,12.151,0,0,1,2.3,1.638l1.54-.924a13.147,13.147,0,0,0-2.394-1.582Zm.42,1.89A13.793,13.793,0,0,1,53.592-1.2l1.372-.854a12.013,12.013,0,0,0-2.03-2.3Zm4.662.378A18.211,18.211,0,0,1,57.89.644L59.458.1A17.744,17.744,0,0,0,57.792-3.7Zm3.01-5.32v-1.54h-5.67c.112-.63.182-1.274.238-1.932H52.178a16.918,16.918,0,0,1-.252,1.932h-5.25v1.54h4.8c-.672,1.484-2,2.716-4.956,3.458a5.331,5.331,0,0,1,.938,1.4c3.472-.966,5-2.632,5.74-4.634A7.891,7.891,0,0,0,58.52-3.85a6.645,6.645,0,0,1,1.106-1.526A7.009,7.009,0,0,1,54.88-8.54Zm11.2,11.088H71.9L75.376-11.27H74ZM89.124-8.176A11.392,11.392,0,0,1,89.8-6.244l1.064-.462a11.275,11.275,0,0,0-.742-1.876Zm-.21,2.212V-8.876h2.17v2.912ZM95.34-9.7h1.484v2.3c0,1.33.266,1.876,1.554,1.876h.574a2.259,2.259,0,0,0,.714-.1c-.042-.35-.084-.91-.112-1.288a2.309,2.309,0,0,1-.6.084H98.49c-.154,0-.168-.14-.168-.546v-3.766H93.884v1.96a3,3,0,0,1-1.358,2.8v-3.78H90.51c.154-.448.336-.938.5-1.442l-1.652-.28a13.673,13.673,0,0,1-.322,1.722H87.486v4.2h-.9v1.372h.9A10.458,10.458,0,0,1,86.492.56a6.81,6.81,0,0,1,1.246.812C88.7-.182,88.9-2.674,88.914-4.592h2.17V-.476c0,.154-.056.21-.21.21s-.616.014-1.078,0a4.275,4.275,0,0,1,.434,1.4,3.443,3.443,0,0,0,1.778-.28c.406-.252.518-.644.518-1.316V-6.1a6.49,6.49,0,0,1,.882.84A4.153,4.153,0,0,0,95.34-9.128ZM90.958-2.3a12.7,12.7,0,0,0-.9-2l-1.008.406a11.22,11.22,0,0,1,.854,2.072ZM97.384-3.4V-.84H94.92V-3.4Zm-3.99,4.634H94.92V.672h2.464v.49h1.582v-6.09H93.394ZM104.412-8.3a10.329,10.329,0,0,1,.756,1.932l.966-.42a10.006,10.006,0,0,0-.812-1.876ZM104.4-5.95V-9.086H106.2V-5.95ZM107.59-10.4h-2c.168-.392.35-.84.532-1.316l-1.512-.182a14,14,0,0,1-.392,1.5h-1.232V-5.95h-.812v1.442h.784A12.184,12.184,0,0,1,101.878.406a5.054,5.054,0,0,1,1.2.812,14.184,14.184,0,0,0,1.274-5.726H106.2V-.434c0,.182-.056.238-.238.252s-.742,0-1.26-.028a4.837,4.837,0,0,1,.406,1.33,4.221,4.221,0,0,0,1.932-.252c.434-.224.546-.588.546-1.288Zm-1.456,8.33a10.126,10.126,0,0,0-.84-2.058l-.938.378a10.967,10.967,0,0,1,.784,2.114Zm3.542,1.078V-3.71h3.108V-.994Zm3.108-6.818V-5.18h-3.108V-7.812Zm-1.092-1.54c.182-.7.35-1.526.518-2.338l-1.694-.168a17.867,17.867,0,0,1-.392,2.506h-1.96V1.232h1.512V.546h3.108v.588h1.582V-9.352Zm10.136-.308a18.709,18.709,0,0,0-2.352-2.058l-1.05,1.064a18.248,18.248,0,0,1,2.282,2.212Zm-.756,7.49V-7.56h-3.738v1.652h2.044v4.214a1.657,1.657,0,0,1-.756,1.3,7.139,7.139,0,0,1,.812,1.554c.266-.35.784-.756,3.6-2.786A6.949,6.949,0,0,1,122.5-3.15Zm9.212-5.306h-3.22V-11.8h-1.792v4.326h-3.36V-5.74h3.36V1.218h1.792V-5.74h3.22Zm9.072-2.394a11.4,11.4,0,0,0-2-1.89l-1.092.91a13.184,13.184,0,0,1,1.918,1.974Zm-1.2,3.192a14.113,14.113,0,0,1-1.47,2.618,25.989,25.989,0,0,1-.49-2.73l4.13-.462-.154-1.568-4.144.462c-.084-1.12-.126-2.31-.112-3.486H134.2c.014,1.232.056,2.464.168,3.668l-1.876.2L132.65-6.4l1.876-.21a27.329,27.329,0,0,0,.826,4.088A12.382,12.382,0,0,1,132.5-.406,8.341,8.341,0,0,1,133.658.9,13.411,13.411,0,0,0,136-.91c.63,1.246,1.414,2.016,2.394,2.016,1.26,0,1.792-.6,2.058-3.038a3.984,3.984,0,0,1-1.372-.91c-.084,1.638-.238,2.282-.56,2.282-.434,0-.882-.616-1.288-1.652A15.968,15.968,0,0,0,139.72-6.2Zm4.228-3.7h-1.6v7.7h1.6Zm1.064-1.344V-.728c0,.238-.1.308-.35.322-.224,0-1.036,0-1.806-.028a6.26,6.26,0,0,1,.518,1.652A6.209,6.209,0,0,0,144.354.9c.532-.266.714-.7.714-1.624v-10.99Zm13.2,14.266h1.372L161.49-11.27h-1.372Zm20.93-5.754h2.52V-4.648h-2.52V-5.894h-1.582v1.246h-2.548v1.442h2.548v1.9c-1.134.182-2.184.35-3.024.462L173.334.7c1.9-.336,4.55-.812,7-1.288l-.084-1.428c-.882.14-1.792.294-2.674.448Zm-2.1-4.424A16.588,16.588,0,0,0,176.694-9.6h1.68l-1.176.686c.266.35.546.742.812,1.148ZM173.11-9.6h1.778a11.1,11.1,0,0,1-.868,1.568,1.369,1.369,0,0,1-.644.588c.168.434.434,1.176.532,1.512.406-.168,1.008-.238,4.872-.56.126.252.238.49.322.7l1.26-.826A15.614,15.614,0,0,0,178.416-9.6h1.974v-1.428h-7.28Zm9.366-.952h-1.54V-2.1h1.54ZM183.61-11.7V-.882c0,.238-.084.322-.322.322s-.994,0-1.736-.028a6.8,6.8,0,0,1,.56,1.6A6.1,6.1,0,0,0,184.534.7c.532-.266.7-.686.7-1.568V-11.7Zm8.33,1.512a17,17,0,0,0-2.226-1.386l-.994,1.162a15.705,15.705,0,0,1,2.2,1.512Zm-.728,3.64a14.47,14.47,0,0,0-2.324-1.316l-.938,1.19a14.636,14.636,0,0,1,2.282,1.456Zm6.09.154a10.542,10.542,0,0,0,.6,1.19h-3.262a10.422,10.422,0,0,0,.588-1.19Zm-1.974-2.548h1.932V-7.9h-1.932ZM197.5-2.94h-2.506V-4.032H197.5Zm1.3,1.176V-3.92a6.785,6.785,0,0,0,1.3,1.246,6.479,6.479,0,0,1,1.162-1.316A6.973,6.973,0,0,1,198.94-6.4h2.17V-7.9H198.9v-1.05H200.7V-10.43H198.9v-1.4H197.26v1.4h-1.932v-1.4h-1.61v1.4h-1.736v1.484h1.736V-7.9H191.45v1.5h2.128a7.86,7.86,0,0,1-2.352,2.688l-.98-.7a41.3,41.3,0,0,1-1.974,4.284l1.47.966c.6-1.288,1.232-2.8,1.764-4.186a7.45,7.45,0,0,1,.784.924,8.639,8.639,0,0,0,1.274-1.218V-.91c0,1.526.5,1.932,2.226,1.932h2.786c1.414,0,1.848-.49,2.03-2.24a4.334,4.334,0,0,1-1.316-.532c-.084,1.232-.2,1.428-.84,1.428h-2.52c-.812,0-.938-.07-.938-.6v-.84ZM216.006-9.17a15.739,15.739,0,0,0-1.568-2.38l-1.246.686a17.411,17.411,0,0,1,1.456,2.492Zm.224,2.842V-7.98h-3.7v-3.85h-1.652v3.85H208.04v1.652h2.744A9.485,9.485,0,0,1,207.69-.042v-11.83h-1.652v3.836a21.26,21.26,0,0,0-1.33-2.044l-1.3.756a16.443,16.443,0,0,1,1.512,2.716l1.12-.686v1.988c-1.008.868-2.044,1.68-2.716,2.17l.84,1.428c.588-.476,1.232-1.05,1.876-1.624V1.19h1.652V.28a7.184,7.184,0,0,1,1.134.924A10.129,10.129,0,0,0,212-3.836a10.332,10.332,0,0,0,3.416,5.012,5.836,5.836,0,0,1,1.2-1.4c-1.932-1.19-3.192-3.486-3.864-6.1ZM220.3.742a14.8,14.8,0,0,0,1.246-3.78l-1.484-.5a11.344,11.344,0,0,1-1.274,3.528Zm4.214-1.288c-.812,0-.952-.056-.952-.5V-3.43h-1.652v2.394c0,1.512.5,1.974,2.436,1.974h2.7c1.568,0,2.058-.5,2.254-2.506a4.676,4.676,0,0,1-1.5-.6c-.084,1.414-.2,1.624-.882,1.624Zm-1.05-4.942a12.152,12.152,0,0,1,2.3,1.638l1.54-.924a13.147,13.147,0,0,0-2.394-1.582Zm.42,1.89A13.793,13.793,0,0,1,225.82-1.2l1.372-.854a12.013,12.013,0,0,0-2.03-2.3Zm4.662.378A18.211,18.211,0,0,1,230.118.644L231.686.1A17.744,17.744,0,0,0,230.02-3.7Zm3.01-5.32v-1.54h-5.67c.112-.63.182-1.274.238-1.932h-1.722a16.92,16.92,0,0,1-.252,1.932H218.9v1.54h4.8c-.672,1.484-2,2.716-4.956,3.458a5.331,5.331,0,0,1,.938,1.4c3.472-.966,5-2.632,5.74-4.634a7.891,7.891,0,0,0,5.32,4.466,6.645,6.645,0,0,1,1.106-1.526,7.009,7.009,0,0,1-4.746-3.164Zm11.578,2.184V-4.55H255.99V-6.356Zm18.438,4.928V-3.08h6.482v1.652ZM268.058-6.3v1.652h-6.482V-6.3Zm0-3.178v1.61h-6.482v-1.61ZM259.9-11.1V1.064h1.68V.2h6.482v.868h1.764V-11.1Zm24.738.126-.364.1h-9.716V-9.24h8.078a17.278,17.278,0,0,1-3.22,2.3v6.2c0,.238-.112.322-.42.322s-1.456.014-2.45-.028a5.945,5.945,0,0,1,.672,1.68,9.42,9.42,0,0,0,3.038-.28c.686-.252.91-.7.91-1.652V-6.1A23.261,23.261,0,0,0,285.978-10ZM301.77-9.884a9.8,9.8,0,0,0-1.316-1.82l-1.2.672a8.931,8.931,0,0,1,1.246,1.89ZM290.556,1.274a17.867,17.867,0,0,0,1.708-2.982L290.7-2.114a13.649,13.649,0,0,1-1.722,2.73Zm2.576-2.842A17.944,17.944,0,0,1,293.4,1.12l1.638-.238a16.03,16.03,0,0,0-.364-2.618Zm8.638-5.978V-9.114h-2.59v-2.548H297.6v2.548H295.9c.112-.392.21-.812.294-1.232l-1.036-.392-.294.042h-1.694q.21-.462.378-.882l-1.582-.406a10.825,10.825,0,0,1-3.094,4.8,7.245,7.245,0,0,1,1.106,1.064A12.157,12.157,0,0,0,292.53-9.38h1.792a9.861,9.861,0,0,1-.378,1.19,9,9,0,0,0-1.246-.658l-.728.924a14.794,14.794,0,0,1,1.428.854,8.971,8.971,0,0,1-.56.854c-.42-.308-.91-.63-1.33-.882l-.9.854a14.592,14.592,0,0,1,1.358.994,8.376,8.376,0,0,1-2.7,1.68A6.258,6.258,0,0,1,290.43-2.3a9.618,9.618,0,0,0,5.306-6.244v.994h1.778a5.725,5.725,0,0,1-3.444,4.368,7.018,7.018,0,0,1,1.162,1.162,6.954,6.954,0,0,0,3.262-3.22A6.511,6.511,0,0,0,300.958-2.2a6.277,6.277,0,0,1,1.092-1.4,6.093,6.093,0,0,1-2.828-3.948ZM295.96-1.6a13.674,13.674,0,0,1,.728,2.66L298.34.742a14.177,14.177,0,0,0-.826-2.6Zm2.856-.028a17.679,17.679,0,0,1,1.666,2.884L302.05.546a17.8,17.8,0,0,0-1.764-2.786Z" transform="translate(590 84)" fill="#fff"/>
    <rect id="圆角矩形_12_拷贝" data-name="圆角矩形 12 拷贝" width="80" height="24" rx="12" transform="translate(951 67)" fill="#fff"/>
    <path id="路径_181" data-name="路径 181" d="M6.54-3.3V-4.884H9.588V-3.3Zm-4.116,0V-4.884H5.388V-3.3ZM5.388-7.416v1.5H2.424v-1.5Zm4.2,0v1.5H6.54v-1.5ZM6.54-8.484v-1.572H5.388v1.572H1.32v6.912h1.1v-.66H5.388V.948H6.54v-3.18H9.588v.6H10.74V-8.484Zm9.228.42A14.7,14.7,0,0,0,13.92-9.84l-.708.684a15.053,15.053,0,0,1,1.8,1.86Zm-.528,6.6V-6.372H12.528V-5.3h1.644v4.08a1.272,1.272,0,0,1-.588,1.056,3.74,3.74,0,0,1,.564.936,18.226,18.226,0,0,1,2.6-2.148,4.756,4.756,0,0,1-.372-.936Zm2.844-.156v-.84H21.54v.84ZM21.54-4v.78H18.084V-4Zm1.056-.84H17.052V.936h1.032V-.84H21.54v.612c0,.144-.048.192-.216.2s-.72.012-1.272-.024a4.719,4.719,0,0,1,.312.96A5.091,5.091,0,0,0,22.128.744C22.488.588,22.6.3,22.6-.2ZM20.364-6.252v-.7h2.412v-.78H20.364v-.624h2.772V-9.18H20.364v-.888h-1.1v.888H16.584v.828H19.26v.624H16.884v.78H19.26v.7H16.212v.828H23.5v-.828ZM35.34-8.3a8.578,8.578,0,0,0-1.248-1.632l-.744.468a9.115,9.115,0,0,1,1.2,1.7Zm-7.416.168a14.077,14.077,0,0,0-1.812-1.728l-.732.672a12.361,12.361,0,0,1,1.764,1.824Zm-.66,6.792V-6.372H24.672V-5.3H26.2v4a1.23,1.23,0,0,1-.588,1.02,3.523,3.523,0,0,1,.54.972,18.932,18.932,0,0,1,2.616-1.836,7.381,7.381,0,0,1-.3-.948Zm3.456-.132V-4h1.02V-5.028H28.572V-4H29.7v2.784c-.5.144-.96.264-1.344.348l.3,1.044c1.008-.3,2.292-.672,3.528-1.032l-.156-.984Zm4.764-5.136V-7.68H33.132C33.108-8.424,33.1-9.192,33.1-10H31.968c.012.8.036,1.572.06,2.316H28.2v1.068h3.864c.216,4.548.768,7.476,2.244,7.5.468,0,1.02-.48,1.3-2.6a3.646,3.646,0,0,1-.888-.624c-.06,1.116-.18,1.752-.372,1.752-.588-.036-1-2.568-1.164-6.024Zm7.164,2.94V-5.448h2.9v1.776Zm-3.768,0c.036-.444.048-.888.048-1.3v-.48h2.6v1.776Zm2.652-4.512v1.692h-2.6V-8.184Zm4.02,1.692h-2.9V-8.184h2.9Zm1.116-2.76H37.824V-4.98c0,1.692-.12,3.816-1.428,5.268a3.693,3.693,0,0,1,.876.732,6.883,6.883,0,0,0,1.5-3.636h2.76V.816h1.116V-2.616h2.9V-.468c0,.228-.084.3-.3.3s-1.02.012-1.788-.024a4.611,4.611,0,0,1,.372,1.08A6.569,6.569,0,0,0,46.08.7c.432-.168.588-.5.588-1.152Z" transform="translate(967 84)" fill="#007ce3"/>
  </g>
</svg>
