<?xml version="1.0" encoding="utf-8"?>
<!-- Generator: Adobe Illustrator 23.0.6, SVG Export Plug-In . SVG Version: 6.00 Build 0)  -->
<svg version="1.1" id="图层_1" xmlns="http://www.w3.org/2000/svg" xmlns:xlink="http://www.w3.org/1999/xlink" x="0px" y="0px"
	 viewBox="0 0 200.2 200" style="enable-background:new 0 0 200.2 200;" xml:space="preserve">
<style type="text/css">
	.st0{fill:#02B2FF;}
	.st1{fill:#008CFF;}
	.st2{fill:#66D7FF;}
</style>
<path class="st0" d="M128.1,115.9l-28.3,24.8l-28.3-24.8c-23.9,9.7-55.3,30.1-70.4,65.5c-4,8.8,3.1,18.6,13.3,18.6h170.8
	c10.2,0,16.8-9.7,13.3-18.6C183.4,146,152,125.7,128.1,115.9z"/>
<ellipse class="st0" cx="98.9" cy="56.6" rx="59.3" ry="55.8"/>
<path class="st1" d="M158.7,177h-31.4c-3.1,0-6.2-2.7-6.2-6.2v-0.9c0-3.1,2.7-6.2,6.2-6.2h31.4c3.1,0,6.2,2.7,6.2,6.2v0.9
	C164.8,174.3,162.2,177,158.7,177z"/>
<polygon class="st1" points="71.9,124.8 71.9,157.1 99.8,140.7 "/>
<polygon class="st1" points="127.7,124.8 127.7,157.1 99.8,140.7 "/>
<path class="st2" d="M98.9,93.8c-14.2,0-26.1-9.3-28.8-22.1h57.5C125,84.1,113.1,93.8,98.9,93.8z"/>
</svg>
