<svg xmlns="http://www.w3.org/2000/svg" viewBox="0 0 29 29"><defs><style>.cls-1{fill:#ff6c6c;}.cls-2{fill:none;stroke:#ff6c6c;stroke-miterlimit:10;}</style></defs><title>2222资源 1</title><g id="图层_2" data-name="图层 2"><g id="图层_1-2" data-name="图层 1"><path class="cls-1" d="M21.49,9.57H20.25v11.1A1.16,1.16,0,0,1,19,21.9H10a1.16,1.16,0,0,1-1.23-1.23V9.57H7.51c-.37,0-.41-.19-.41-.41s0-.41.41-.41h5.75V7.92a1,1,0,0,1,.82-.82h.82a1,1,0,0,1,.82.82v.82h5.75c.37,0,.41.19.41.41s0,.41-.41.41Zm-7-1.64a.41.41,0,1,0,.41.41.41.41,0,0,0-.41-.41Zm4.93,1.64H9.57V20.25a1,1,0,0,0,.82.82h8.22a1,1,0,0,0,.82-.82V9.57Zm-3.7,1.64h.82v8.22h-.82V11.21Zm-3.29,0h.82v8.22h-.82V11.21Z"/><circle class="cls-2" cx="14.5" cy="14.5" r="14"/></g></g></svg>