<?xml version="1.0" standalone="no"?><!DOCTYPE svg PUBLIC "-//W3C//DTD SVG 1.1//EN" "http://www.w3.org/Graphics/SVG/1.1/DTD/svg11.dtd"><svg t="1578371646589" class="icon" viewBox="0 0 1024 1024" version="1.1" xmlns="http://www.w3.org/2000/svg" p-id="6572" width="18" height="18" xmlns:xlink="http://www.w3.org/1999/xlink"><defs><style type="text/css"></style></defs><path d="M340.992 303.104C223.232 326.144 112.64 381.952 13.824 432.64 71.68 556.544 163.328 676.352 186.88 803.84c50.176 22.016 114.176 32.768 166.4 34.816 6.656-156.672 0.512-336.384-12.288-535.552zM961.536 670.72h57.856v171.52h-247.808v-91.136h-88.576V670.72h278.528zM142.848 111.104v46.592h35.84v152.064c64.512-26.112 121.344-40.96 188.928-53.76 68.608 12.8 124.416 27.648 189.44 54.784V157.696h33.28v-46.592H142.848zM296.96 223.232H200.192v-46.592H296.96v46.592z m117.76 0H318.464v-46.592H414.72v46.592z m117.76 0H435.712v-46.592H532.48v46.592zM97.792 840.704c50.176 28.16 104.448 27.648 162.816 0 68.096 37.888 141.312 37.376 219.648 0 58.368 27.648 112.64 28.16 162.816 0 0.512 2.56 1.024 4.608 1.536 7.168-27.136 61.44-136.192 61.44-164.352 3.072v3.584c-37.376 78.336-182.272 78.848-220.672-1.536-29.184 56.32-135.68 55.808-162.816-4.096-17.408 31.232-77.312 30.208-92.16-4.096 0.512-1.536 0.512-2.56 1.024-4.096 28.672 16.384 59.392 15.872 92.16 0z m547.84 0c-0.512 1.536-0.512 2.56-1.024 4.096 15.36 34.304 76.288 34.816 93.184 2.56 0 0.512 0.512 0.512 0.512 1.024v-7.68c-33.28 15.872-64 16.384-92.672 0zM497.664 494.08c-4.608 0-8.704 4.096-8.704 8.704 0 4.608 3.584 8.704 8.704 8.704 4.608 0 8.704-4.096 8.704-8.704 0-4.608-4.096-8.704-8.704-8.704zM391.168 302.08c-12.8 180.224-20.48 359.424-16.896 536.064 52.224-3.072 121.856-14.848 175.104-34.304 23.552-127.488 115.2-247.808 173.056-371.2-103.936-49.664-215.04-109.056-331.264-130.56z m178.688 301.056c-2.048 0.512-3.584-0.512-4.608-2.048-5.632 12.8-14.336 22.528-26.624 30.72-11.776 7.168-25.088 11.776-37.376 17.408l-2.56 1.024-2.56-1.024c-12.8-5.632-25.6-9.728-37.376-17.408-12.288-7.68-20.992-17.408-26.624-30.72-1.024 1.536-2.56 2.56-4.608 2.048-3.072-0.512-4.096-4.608-4.608-7.68-0.512-3.584-0.512-7.168-0.512-10.752v-14.848l5.12-2.048c1.536 1.024 3.072 2.56 4.608 3.584 2.048 2.048 4.608 3.584 6.656 5.632 2.56 2.56 5.632 4.608 8.192 7.168 2.048 2.048 4.608 5.12 3.072 8.192-1.024 2.048-3.584 2.56-6.144 2.56 8.704 14.848 29.184 23.04 45.568 26.624v-74.752h-17.92c-2.048 2.048-5.12 3.072-7.68 3.072-6.144 0-11.264-5.12-11.264-11.264 0-6.144 5.12-11.264 11.264-11.264 3.584 0 7.168 2.048 9.216 4.608h16.384v-9.216c-8.192-3.584-13.312-11.264-13.312-20.48 0-7.168 3.584-13.824 9.216-17.92-13.824-6.144-22.016-21.504-19.456-38.4 3.072-19.968 20.48-34.304 39.424-32.256 18.944 2.56 31.232 20.48 28.16 40.96-2.048 13.824-10.752 24.576-22.016 29.696 5.632 4.096 9.216 10.752 9.216 17.92 0 8.704-5.12 16.384-12.8 19.968v9.216h16.896c2.048-3.072 5.632-4.608 9.216-4.608 6.144 0 11.264 5.12 11.264 11.264 0 6.144-5.12 11.264-11.264 11.264-3.072 0-5.632-1.024-7.68-3.072h-17.92v75.264c16.896-3.584 37.376-11.776 46.592-27.136-2.56 0.512-5.12 0-6.144-2.56-1.536-3.072 1.536-6.144 3.072-8.192 2.56-2.56 5.12-5.12 8.192-7.168 2.048-2.048 4.608-3.584 6.656-5.632 1.536-1.024 3.072-2.56 4.608-3.584l5.12 2.048v14.848c0 3.584 0 7.168-0.512 10.752-2.048 3.584-2.56 7.68-6.144 8.192z" p-id="6573" fill="#02b2ff"></path></svg>