<?xml version="1.0" standalone="no"?><!DOCTYPE svg PUBLIC "-//W3C//DTD SVG 1.1//EN" "http://www.w3.org/Graphics/SVG/1.1/DTD/svg11.dtd"><svg t="1577174821536" class="icon" viewBox="0 0 1024 1024" version="1.1" xmlns="http://www.w3.org/2000/svg" p-id="16996" width="22" height="22" xmlns:xlink="http://www.w3.org/1999/xlink"><defs><style type="text/css"></style></defs><path d="M513 933.7c230.7 0 417.8-186.9 417.8-417.7 0-230.7-186.9-417.8-417.7-417.8h-0.2C282.2 98.2 95.2 285.3 95.2 516c0.2 230.7 187.2 417.7 417.8 417.7z m0 64.3C246.8 998 31 782.2 31 516S246.8 34 513 34s482 215.8 482 482-215.8 482-482 482z" p-id="16997" fill="#13be5b"></path><path d="M480.9 226.8h64.3v449.9h-64.3V226.8z m0 514.1h64.3v64.3h-64.3v-64.3z" p-id="16998" fill="#13be5b"></path></svg>