<?xml version="1.0" standalone="no"?><!DOCTYPE svg PUBLIC "-//W3C//DTD SVG 1.1//EN" "http://www.w3.org/Graphics/SVG/1.1/DTD/svg11.dtd"><svg t="1578282454904" class="icon" viewBox="0 0 1024 1024" version="1.1" xmlns="http://www.w3.org/2000/svg" p-id="10301" width="18" height="18" xmlns:xlink="http://www.w3.org/1999/xlink"><defs><style type="text/css"></style></defs><path d="M241.091765 190.494118l279.04-183.808a40.417882 40.417882 0 0 1 62.674823 33.792v924.16c0 18.010353-1.867294 24.545882-5.391059 31.141647a36.743529 36.743529 0 0 1-15.299764 15.299764c-6.595765 3.523765-13.131294 5.391059-31.141647 5.391059h-341.112471c-18.010353 0-24.576-1.867294-31.141647-5.391059a36.743529 36.743529 0 0 1-15.299765-15.299764c-3.523765-6.595765-5.391059-13.131294-5.391059-31.141647v-582.776471c0-49.272471 2.590118-66.831059 8.372706-85.925647a142.757647 142.757647 0 0 1 27.52753-51.109647c12.8-15.420235 26.021647-27.226353 67.162353-54.332235z m58.699294 219.678117a40.448 40.448 0 1 0 0 80.896h121.313882a40.448 40.448 0 0 0 0-80.896h-121.313882z m0 161.761883a40.448 40.448 0 1 0 0 80.896h121.313882a40.448 40.448 0 0 0 0-80.896h-121.313882z m0 161.731764a40.448 40.448 0 1 0 0 80.896h121.313882a40.448 40.448 0 0 0 0-80.896h-121.313882zM795.949176 284.641882l-63.036235-63.849411a40.448 40.448 0 0 0-69.210353 28.400941v710.505412c0 18.010353 1.867294 24.545882 5.391059 31.141647 3.523765 6.595765 8.704 11.776 15.299765 15.299764 6.595765 3.523765 13.131294 5.391059 31.141647 5.391059h98.514823c18.010353 0 24.545882-1.867294 31.141647-5.391059a36.743529 36.743529 0 0 0 15.299765-15.299764c3.523765-6.595765 5.391059-13.131294 5.391059-31.141647v-504.741648c0-41.532235-1.475765-55.868235-5.12-71.80047a141.101176 141.101176 0 0 0-18.010353-43.851294c-8.583529-13.854118-17.618824-25.118118-46.802824-54.66353z" p-id="10302" fill="#d3dadd"></path></svg>