<?xml version="1.0" standalone="no"?><!DOCTYPE svg PUBLIC "-//W3C//DTD SVG 1.1//EN" "http://www.w3.org/Graphics/SVG/1.1/DTD/svg11.dtd"><svg t="1578282265666" class="icon" viewBox="0 0 1117 1024" version="1.1" xmlns="http://www.w3.org/2000/svg" p-id="9139" xmlns:xlink="http://www.w3.org/1999/xlink" width="19.634765625" height="18"><defs><style type="text/css"></style></defs><path d="M1084.416 853.969455c19.223273 14.708364 23.272727 42.635636 9.122909 62.231272-3.211636 4.282182-78.010182 104.866909-224.349091 104.866909-74.845091 0-135.261091-17.501091-193.722182-34.210909-46.173091-13.312-89.739636-25.786182-137.355636-28.532363-40.96-2.373818-76.8 7.447273-118.411636 18.850909-47.290182 12.939636-101.189818 27.787636-171.473455 26.763636-141.870545-1.629091-231.749818-94.254545-235.52-98.164364a45.288727 45.288727 0 0 1 0.837818-62.976 43.008 43.008 0 0 1 61.533091 0.744728c1.489455 1.629091 54.504727 54.551273 137.728 68.282182l-148.200727-382.324364a45.614545 45.614545 0 0 1 0.977454-35.048727 43.845818 43.845818 0 0 1 25.50691-23.505455L546.443636 311.854545c1.117091-0.372364 2.327273-0.465455 3.584-0.744727 1.861818-0.372364 3.584-0.930909 5.399273-1.163636 1.722182-0.093091 3.351273-0.093091 5.073455-0.093091 1.722182 0 3.444364-0.139636 5.12 0.093091a26.530909 26.530909 0 0 1 5.352727 1.163636c1.210182 0.232727 2.420364 0.372364 3.677091 0.744727l455.400727 159.045819a45.056 45.056 0 0 1 26.484364 58.600727l-155.136 400.104727c80.244364-12.101818 121.623273-65.861818 122.088727-66.513454a42.868364 42.868364 0 0 1 60.974545-9.169455zM780.939636 44.776727v59.298909H339.921455V44.776727c0-24.529455 19.549091-44.544 43.566545-44.544h353.885091c23.970909 0 43.566545 20.014545 43.566545 44.544z m-231.051636 217.227637c-1.070545 0.372364-2.327273 0.372364-3.537455 0.744727l-357.282909 124.741818V188.788364c0-24.529455 19.549091-44.497455 43.566546-44.497455h655.592727c24.017455 0 43.566545 20.014545 43.566546 44.497455v198.609454l-357.28291-124.741818c-1.210182-0.325818-2.466909-0.465455-3.67709-0.698182-1.722182-0.372364-3.444364-0.930909-5.306182-1.163636-1.722182-0.232727-3.444364-0.093091-5.12-0.093091-1.768727 0-3.351273-0.139636-5.12 0.093091-1.815273 0.139636-3.537455 0.651636-5.399273 1.163636z" fill="#d3dadd" p-id="9140"></path></svg>