<?xml version="1.0" standalone="no"?><!DOCTYPE svg PUBLIC "-//W3C//DTD SVG 1.1//EN" "http://www.w3.org/Graphics/SVG/1.1/DTD/svg11.dtd"><svg t="1578366987813" class="icon" viewBox="0 0 1024 1024" version="1.1" xmlns="http://www.w3.org/2000/svg" p-id="2188" width="18" height="18" xmlns:xlink="http://www.w3.org/1999/xlink"><defs><style type="text/css"></style></defs><path d="M378.88 738.688c0-198.528 161.024-359.552 359.552-359.552 32.768 0 64.512 4.48 94.592 12.672V76.288C833.024 34.56 798.976 0.64 757.376 0.64H76.16C34.432 0.64 0.384 34.688 0.384 76.288v794.88c0 41.728 34.048 75.648 75.648 75.648h369.152C403.456 888.064 378.88 816.384 378.88 738.688zM189.696 152.064H643.84c9.984 0 19.712 3.968 26.752 11.008 7.168 7.168 11.136 16.768 11.008 26.752 0 10.112-3.968 19.712-11.008 26.752-7.168 7.168-16.768 11.136-26.752 11.008H189.696c-9.984 0-19.712-3.968-26.752-11.008-7.168-7.168-11.136-16.768-11.008-26.752 0-9.984 3.968-19.712 11.008-26.752 7.04-7.04 16.64-11.008 26.752-11.008z m0 227.072h151.424c20.992 0 37.888 16.896 37.888 37.888 0 20.992-16.896 37.888-37.888 37.888H189.696c-20.992 0-37.888-16.896-37.888-37.888 0-20.992 16.896-37.888 37.888-37.888z m75.648 302.848h-75.648c-9.984 0-19.712-3.968-26.752-11.008-7.168-7.04-11.136-16.768-11.008-26.752 0-10.112 3.968-19.712 11.008-26.752 7.168-7.04 16.768-11.136 26.752-11.008h75.648c9.984 0 19.712 3.968 26.752 11.008 7.168 7.168 11.136 16.768 11.008 26.752 0 9.984-3.968 19.712-11.008 26.752-7.04 7.04-16.64 11.008-26.752 11.008z m0 0" p-id="2189" fill="#13be5b"></path><path d="M738.304 454.656c-156.928 0-284.032 127.104-284.032 284.032 0 156.928 127.104 284.032 284.032 284.032 156.928 0 284.032-127.104 284.032-284.032 0-156.8-127.104-284.032-284.032-284.032z m125.44 371.712c10.368 10.368 10.368 27.264 0 37.76-5.12 5.12-12.032 7.808-18.816 7.808-6.784 0-13.568-2.688-18.816-7.808l-87.68-87.68-87.68 87.68c-5.12 5.12-12.032 7.808-18.816 7.808-6.784 0-13.568-2.688-18.816-7.808-10.368-10.368-10.368-27.264 0-37.76l87.68-87.68-87.68-87.68c-10.368-10.368-10.368-27.264 0-37.76 10.368-10.368 27.264-10.368 37.76 0l87.68 87.68 87.68-87.68c10.368-10.368 27.264-10.368 37.76 0 10.368 10.368 10.368 27.264 0 37.76l-87.68 87.68 87.424 87.68z m0 0" p-id="2190" fill="#13be5b"></path></svg>